<?xml version="1.0" encoding="UTF-8"?>
<svg width="138px" height="39px" viewBox="0 0 138 39" version="1.1" xmlns="http://www.w3.org/2000/svg" xmlns:xlink="http://www.w3.org/1999/xlink">
    <!-- Generator: Sketch 60 (88103) - https://sketch.com -->
    <title>Artboard</title>
    <desc>Created with Sketch.</desc>
    <defs>
        <polygon id="path-1" points="0.000209677419 0.156023963 38.8389677 0.156023963 38.8389677 37.8856328 0.000209677419 37.8856328"></polygon>
    </defs>
    <g id="Artboard" stroke="none" stroke-width="1" fill="none" fill-rule="evenodd">
        <g id="logo/connect/sea/sm">
            <g id="Group-3">
                <g id="Group-2-Copy">
                    <g id="Group-5-Copy" transform="translate(0.000000, 0.557143)">
                        <mask id="mask-2" fill="white">
                            <use xlink:href="#path-1"></use>
                        </mask>
                        <g id="Clip-4"></g>
                        <path d="M5.72272581,1.78543558 C3.49217742,1.78543558 1.67762903,3.5485471 1.67762903,5.71536553 L1.67762903,32.3262098 C1.67762903,34.4930282 3.49217742,36.2561397 5.72272581,36.2561397 L33.1162419,36.2561397 C35.3472097,36.2561397 37.1617581,34.4930282 37.1617581,32.3262098 L37.1617581,5.71536553 C37.1617581,3.5485471 35.3472097,1.78543558 33.1162419,1.78543558 L5.72272581,1.78543558 Z M33.1162419,37.8856328 L5.72272581,37.8856328 C2.5675,37.8856328 0.000209677419,35.3916936 0.000209677419,32.3262098 L0.000209677419,5.71536553 C0.000209677419,2.64988166 2.5675,0.155942488 5.72272581,0.155942488 L33.1162419,0.155942488 C36.2718871,0.155942488 38.8391774,2.64988166 38.8391774,5.71536553 L38.8391774,32.3262098 C38.8391774,35.3916936 36.2718871,37.8856328 33.1162419,37.8856328 L33.1162419,37.8856328 Z" id="Fill-3" fill="#003C78" fill-rule="nonzero" mask="url(#mask-2)"></path>
                    </g>
                    <path d="M25.6851835,23.221609 C25.2106783,24.3184432 24.5073337,25.164904 23.5347664,25.8099056 C22.5664056,26.4520054 21.4630128,26.764143 20.1606475,26.764143 C17.7359597,26.764143 15.951938,26.0892957 14.7059412,24.698563 C13.4990659,23.3633767 12.912665,21.662579 12.912665,19.4995855 C12.912665,17.337421 13.4990659,15.6366233 14.7067825,14.300608 C15.2814049,13.6634824 16.0032586,13.1556888 16.8538343,12.790492 C17.7102994,12.4223934 18.8229467,12.235857 20.1606475,12.235857 C21.4630128,12.235857 22.5664056,12.5479946 23.5347664,13.1900944 C24.5069131,13.8346814 25.2102576,14.6815568 25.6851835,15.778391 L25.9035064,16.2824539 L30.0857143,16.2824539 L29.6919759,15.1785728 C28.9566612,13.1154799 27.7216016,11.4656688 26.0225533,10.2763954 C24.2179192,9.0025589 22.0687641,8.35714286 19.6356631,8.35714286 C16.4180299,8.35714286 13.7674473,9.46185303 11.7533243,11.6447438 C9.86918533,13.7194434 8.91428571,16.3624573 8.91428571,19.4995855 C8.91428571,22.6379572 9.86918533,25.2809712 11.7579515,27.359816 C13.7674473,29.538147 16.4180299,30.6428571 19.6356631,30.6428571 C22.0691848,30.6428571 24.2183399,29.9974411 26.0200293,28.7248481 C27.7220222,27.5335022 28.9570818,25.8836911 29.6919759,23.8214272 L30.0857143,22.7175461 L25.9035064,22.7175461 L25.6851835,23.221609 Z" id="Fill-1" fill="#003C78" fill-rule="nonzero"></path>
                </g>
                <text id="➡️-STATUS-Copy-19" font-family="Helvetica" font-size="16" font-weight="normal" line-spacing="18" letter-spacing="1" fill="#003C78">
                    <tspan x="48" y="25">CONNECT</tspan>
                </text>
            </g>
        </g>
    </g>
</svg>