<?xml version="1.0" encoding="UTF-8"?>
<svg width="138px" height="39px" viewBox="0 0 138 39" version="1.1" xmlns="http://www.w3.org/2000/svg" xmlns:xlink="http://www.w3.org/1999/xlink">
    <!-- Generator: Sketch 60 (88103) - https://sketch.com -->
    <title>Artboard</title>
    <desc>Created with Sketch.</desc>
    <g id="Artboard" stroke="none" stroke-width="1" fill="none" fill-rule="evenodd">
        <g id="brand/connect/logo/md/white" fill="#FFFFFF">
            <g id="Group">
                <g id="brand/connect/icon/md/white">
                    <g id="Group-Copy-3">
                        <path d="M3.48358376,1.02631579 C2.12599191,1.02631579 1.02112964,2.13678947 1.02112964,3.50178947 L1.02112964,35.1723553 C1.02112964,36.5373553 2.12599191,37.6478289 3.48358376,37.6478289 L34.9946233,37.6478289 C36.3527257,37.6478289 37.4570774,36.5373553 37.4570774,35.1723553 L37.4570774,3.50178947 C37.4570774,2.13678947 36.3527257,1.02631579 34.9946233,1.02631579 L3.48358376,1.02631579 Z M34.9946233,38.6741447 L3.48358376,38.6741447 C1.56309419,38.6741447 -2.84217094e-13,37.1031118 -2.84217094e-13,35.1723553 L-2.84217094e-13,3.50178947 C-2.84217094e-13,1.57103289 1.56309419,-7.10542736e-15 3.48358376,-7.10542736e-15 L34.9946233,-7.10542736e-15 C36.9156234,-7.10542736e-15 38.478207,1.57103289 38.478207,3.50178947 L38.478207,35.1723553 C38.478207,37.1031118 36.9156234,38.6741447 34.9946233,38.6741447 L34.9946233,38.6741447 Z" id="Fill-7"></path>
                        <path d="M16.5154444,12.1524257 C17.4178678,11.7565243 18.5811897,11.5561362 19.971713,11.5561362 C21.3298154,11.5561362 22.533472,11.9043138 23.5497512,12.5909191 C24.5662858,13.2790638 25.3341753,14.2212217 25.8312101,15.3912217 L25.963957,15.7029651 L29.4720479,15.7029651 L29.2331035,15.019952 C28.5183128,12.9727086 27.3179749,11.3365046 25.6673188,10.1580375 C23.9112311,8.89412961 21.8176601,8.25319539 19.4442995,8.25319539 C16.3094315,8.25319539 13.7292922,9.34853092 11.7733184,11.5114914 C9.93681674,13.5741296 9.00605707,16.2071428 9.00605707,19.3371493 C9.00605707,22.4671559 9.9373273,25.1006822 11.7758712,27.1658862 C13.7292922,29.3257678 16.3094315,30.4211033 19.4442995,30.4211033 C21.8176601,30.4211033 23.9117417,29.7801691 25.6657871,28.5172875 C27.3179749,27.3372809 28.5188233,25.701077 29.2331035,23.6543467 L29.4720479,22.9713336 L25.963957,22.9713336 L25.8312101,23.283077 C25.3346858,24.4525638 24.5667964,25.3947217 23.5497512,26.0833796 C22.533472,26.7699849 21.3298154,27.1181625 19.971713,27.1181625 C17.468669,27.1181625 15.5412868,26.368952 14.2413887,24.8892612 C12.9892285,23.4765375 12.3540859,21.6083862 12.3540859,19.3371493 C12.3540859,17.0659125 12.9892285,15.1982743 14.2418993,13.7845243 C14.8507478,13.0956099 15.6155739,12.5462743 16.5154444,12.1524257" id="Fill-9"></path>
                    </g>
                </g>
                <text id="➡️-STATUS-Copy-20" font-family="Helvetica" font-size="16" font-weight="normal" line-spacing="18" letter-spacing="1">
                    <tspan x="45.1446541" y="25.5">CONNECT</tspan>
                </text>
            </g>
        </g>
    </g>
</svg>