<svg xmlns="http://www.w3.org/2000/svg" viewBox="0 0 107.68 36.33"><defs><style>.cls-1{fill:#fff;}</style></defs><g id="Layer_2" data-name="Layer 2"><g id="Layer_1-2" data-name="Layer 1"><path class="cls-1" d="M2.31,8.92,11.17,0h3.11L4.55,9.7,14.6,20.8H11.42L2.9,11.26l-.59.59v9H0V0H2.31Z"/><path class="cls-1" d="M19.37,12.76c0,1.74,0,3.65,1.65,5a5.58,5.58,0,0,0,6.86,0c1.65-1.4,1.65-3.31,1.65-5V0h2.31V13.38a8.05,8.05,0,0,1-1.31,5,7.34,7.34,0,0,1-6.08,2.81,7.34,7.34,0,0,1-6.08-2.81,8.05,8.05,0,0,1-1.31-5V0h2.31Z"/><path class="cls-1" d="M39.51,0V18.62h5.74V20.8h-8V0Z"/><path class="cls-1" d="M52.92,2.18V20.8H50.61V2.18h-5V0H58V2.18Z"/><path class="cls-1" d="M63.4,12.76c0,1.74,0,3.65,1.65,5a5.58,5.58,0,0,0,6.86,0c1.66-1.4,1.66-3.31,1.66-5V0h2.3V13.38a8,8,0,0,1-1.31,5,8,8,0,0,1-12.16,0,8.05,8.05,0,0,1-1.31-5V0H63.4Z"/><path class="cls-1" d="M84.57,0a9.13,9.13,0,0,1,5.06,1.15A5.45,5.45,0,0,1,91.9,5.77a5.47,5.47,0,0,1-5.24,5.74l6.62,9.29H90.47l-6.33-9.1h-.6v9.1h-2.3V0Zm-1,9.64H85c2.87,0,4.59-1.37,4.59-3.81a3.23,3.23,0,0,0-1.66-3.05,5.91,5.91,0,0,0-3-.6H83.54Z"/><path class="cls-1" d="M107.68,2.18H99.2V8.36h8.23v2.18H99.2v8.08h8.48V20.8H96.89V0h10.79Z"/><path class="cls-1" d="M1.81,25.8a3.72,3.72,0,0,1,2.31.63A2.5,2.5,0,0,1,5,28.52a2.25,2.25,0,0,1-1,2A2.53,2.53,0,0,1,6,33a2.79,2.79,0,0,1-1,2.18,3.72,3.72,0,0,1-2.42.66H0V25.8Zm-.69,4.42H2c.59,0,2-.12,2-1.67A1.73,1.73,0,0,0,2,26.85H1.12Zm0,4.6H2.4a2.78,2.78,0,0,0,1.77-.43A1.69,1.69,0,0,0,4.84,33,1.62,1.62,0,0,0,4,31.52a3.48,3.48,0,0,0-1.7-.3H1.12Z"/><path class="cls-1" d="M13.24,26.85H9.13v3h4v1h-4v3.92h4.11v1H8V25.8h5.23Z"/><path class="cls-1" d="M20.86,33H16.57l-1.21,2.84H14.12l4.64-10.56,4.51,10.56H22ZM20.42,32l-1.69-4L17,32Z"/><path class="cls-1" d="M25.82,32a2.86,2.86,0,0,0,.8,2.44,2.67,2.67,0,0,0,3.32,0,2.86,2.86,0,0,0,.8-2.44V25.8h1.12v6.48a3.94,3.94,0,0,1-.63,2.42,3.88,3.88,0,0,1-5.9,0,3.94,3.94,0,0,1-.63-2.42V25.8h1.12Z"/><path class="cls-1" d="M36.94,26.85v9H35.82v-9H33.38V25.8h6v1.05Z"/><path class="cls-1" d="M43.35,31.54,40,25.8h1.3l2.57,4.5,2.6-4.5h1.3l-3.34,5.74v4.33H43.35Z"/><path class="cls-1" d="M53.87,25.8v9h2.78v1h-3.9V25.8Z"/><path class="cls-1" d="M57.11,30.84a5.24,5.24,0,1,1,5.24,5.22A5.14,5.14,0,0,1,57.11,30.84Zm1.15,0a4.1,4.1,0,1,0,4.09-4.15A4.11,4.11,0,0,0,58.26,30.84Z"/><path class="cls-1" d="M70.77,32a2.86,2.86,0,0,0,.8,2.44,2.68,2.68,0,0,0,3.33,0A2.86,2.86,0,0,0,75.7,32V25.8h1.12v6.48a4,4,0,0,1-.64,2.42,3.87,3.87,0,0,1-5.89,0,3.88,3.88,0,0,1-.64-2.42V25.8h1.12Z"/><path class="cls-1" d="M79.42,35.87V25.37l7.86,8.24V25.8h1.11V36.33l-7.85-8.24v7.78Z"/><path class="cls-1" d="M96.19,30.81h4.21v.24a5.59,5.59,0,0,1-1,3.19,4.52,4.52,0,0,1-3.75,1.82,5.22,5.22,0,1,1,0-10.43,5,5,0,0,1,3.08,1A6,6,0,0,1,100,27.82l-.83.76a5.43,5.43,0,0,0-1-1,3.7,3.7,0,0,0-2.44-.84,4.16,4.16,0,0,0,0,8.31,3.52,3.52,0,0,0,3.08-1.69,3.25,3.25,0,0,0,.41-1.44h-3Z"/><path class="cls-1" d="M107.68,26.85h-4.11v3h4v1h-4v3.92h4.11v1h-5.23V25.8h5.23Z"/></g></g></svg>